# xmcd
#
# Track frame offsets:
#	150
#	13915
#	25834
#	50397
#	64685
#	84385
#	101480
#	118610
#	131128
#	149012
#	165386
#	177640
#	192050
#
# Disc length: 2756 seconds
#
# Revision: 1
# Processed by: cddbd v1.5.2PL0 Copyright (c) Steve Scherf et al.
# Submitted via: audiograbber 1.83.01
#
DISCID=b20ac20d
DTITLE=The Lindsey Family - Singing as We Go
DYEAR=2010
DGENRE=Bluegrass
TTITLE0=He Keeps Me Singing
TTITLE1=Make Him a Soldier
TTITLE2=Tis So Sweet
TTITLE3=Leaning on the Everlasting Arms
TTITLE4=If I Knew of a Land
TTITLE5=Love Lifted Me
TTITLE6=Oh. How I Love Jesus
TTITLE7=America the Beautiful
TTITLE8=Tell Me the Story of Jesus
TTITLE9=Jesus Hold My Hand
TTITLE10=Standing on the Promises
TTITLE11=Be Thou My Vision
TTITLE12=I'll Fly Away
EXTD=
EXTT0=
EXTT1=
EXTT2=
EXTT3=
EXTT4=
EXTT5=
EXTT6=
EXTT7=
EXTT8=
EXTT9=
EXTT10=
EXTT11=
EXTT12=
PLAYORDER=
